<svg role="img" viewBox="0 0 24 24" xmlns="http://www.w3.org/2000/svg"><title>Mergey.ch</title><path d="M12 0A12 12 0 000 12a12 12 0 0012 12 12 12 0 0012-12A12 12 0 0012 0zm0 1.5A10.5 10.5 0 0122.5 12 10.5 10.5 0 0112 22.5 10.5 10.5 0 011.5 12 10.5 10.5 0 0112 1.5zm0 5.25c-1.75 0-3.5.307-5.25.902 0 4.223-.035 8.698 5.25 11.098 5.285-2.4 5.25-6.875 5.25-11.098-1.75-.595-3.5-.902-5.25-.902zm0 1.125c1.375 0 2.75.249 4.125.732 0 1.496.006 3.03-.332 4.448L12 9.188l-3.793 3.867c-.338-1.417-.332-2.952-.332-4.448 1.375-.483 2.75-.732 4.125-.732zm0 3.105l3.344 3.41c-.176.391-.392.767-.656 1.124L12 12.774l-2.688 2.74a6.079 6.079 0 01-.656-1.123v-.002L12 10.98zm0 3.586l1.838 1.873c-.497.441-1.102.84-1.838 1.186a7.622 7.622 0 01-1.838-1.186L12 14.566z"/></svg>